<?xml version="1.0" standalone="no"?>
<!DOCTYPE svg PUBLIC "-//W3C//DTD SVG 20010904//EN"
 "http://www.w3.org/TR/2001/REC-SVG-20010904/DTD/svg10.dtd">
<svg version="1.0" xmlns="http://www.w3.org/2000/svg"
 width="80.000000pt" height="80.000000pt" viewBox="0 0 80.000000 80.000000"
 preserveAspectRatio="xMidYMid meet">
<metadata>
Created by potrace 1.14, written by Peter Selinger 2001-2017
</metadata>
<g transform="translate(0.000000,80.000000) scale(0.100000,-0.100000)"
fill="#000000" stroke="none">
<path d="M314 780 c-64 -13 -137 -54 -188 -106 -82 -81 -116 -170 -112 -289 2
-66 8 -93 33 -146 38 -83 109 -153 193 -193 59 -28 74 -31 160 -31 84 1 102 4
160 31 126 59 201 159 223 297 35 223 -132 431 -355 442 -40 2 -92 0 -114 -5z"/>
</g>
</svg>
